#!OML:ASF I:\Actors\actors\Patient Classification 1\Patient 1\Session 1\Subject1.ASF
:FULLY-SPECIFIED
:DEGREES
748
root -0.355062 17.7338 7.86403 11.5763 -2.1999 -7.6618
lowerback 13.536 0.580932 6.99051
upperback -4.58417 2.11837 0.236603
thorax -12.4878 0.454565 -4.19703
lowerneck -20.4716 -5.5023 -4.38341
upperneck 16.8092 -8.54206 10.4486
head 9.34892 -3.14154 3.10908
rclavicle 1.09332e-014 6.75868e-015
rhumerus -22.2867 -12.427 -13.1621
rradius 54.2877
rwrist 19.368
rhand 14.6064 -25.4181
rfingers 7.12502
rthumb 39.481 -50.7986
lclavicle 1.09332e-014 6.75868e-015
lhumerus -14.2624 22.3093 7.11275
lradius 44.5502
lwrist -20.5625
lhand -17.2276 -24.7241
lfingers 7.12502
lthumb 9.01574 5.06322
rfemur -6.56645 25.0973 23.6375
rtibia 2.83275
rfoot -10.992 -23.2016
rtoes 0.0253663
lfemur 179.172 214.518 169.467
ltibia -2.80618
lfoot 348.611 -317.579
ltoes -0.232867
749
root -0.355423 17.7252 7.8792 11.3272 -2.25643 -7.69446
lowerback 13.3068 0.58955 7.09333
upperback -4.75912 2.13528 0.209917
thorax -12.5463 0.446664 -4.28367
lowerneck -20.1883 -5.4739 -4.29709
upperneck 17.4025 -8.56242 10.2864
head 9.49309 -3.1539 3.04498
rclavicle 4.91992e-015 -7.15625e-015
rhumerus -24.6805 -10.7312 -12.7263
rradius 57.4196
rwrist 18.0821
rhand 14.7508 -25.3325
rfingers 7.12502
rthumb 39.617 -50.6729
lclavicle 4.91992e-015 -7.15625e-015
lhumerus -17.275 20.1389 5.92665
lradius 47.8385
lwrist -18.7943
lhand -17.0944 -24.8083
lfingers 7.12502
lthumb 9.1443 4.97346
rfemur -6.25363 24.9019 23.8426
rtibia 2.94985
rfoot -11.1676 -22.926
rtoes 0.0146562
lfemur 179.572 214.203 169.254
ltibia -2.7669
lfoot 348.623 -317.902
ltoes -0.523108
750
root -0.356333 17.7181 7.8934 11.1041 -2.29483 -7.71709
lowerback 13.0837 0.598286 7.19103
upperback -4.96315 2.15161 0.170432
thorax -12.6419 0.435625 -4.38217
lowerneck -19.9345 -5.44801 -4.22156
upperneck 18.037 -8.59047 10.1445
head 9.65996 -3.16606 2.98865
rclavicle -2.08724e-015 2.3059e-014
rhumerus -27.1619 -9.22124 -12.3981
rradius 60.6856
rwrist 17.0236
rhand 14.9332 -25.1734
rfingers 7.12502
rthumb 39.7888 -50.4628
lclavicle -2.08724e-015 2.3059e-014
lhumerus -20.1158 18.1502 4.90199
lradius 51.0672
lwrist -17.2763
lhand -16.9395 -24.8907
lfingers 7.12502
lthumb 9.29374 4.88444
rfemur -5.97372 24.7523 24.0187
rtibia 3.05368
rfoot -11.3301 -22.7172
rtoes 0.0201841
lfemur 179.934 213.993 169.058
ltibia -2.7351
lfoot 348.599 -318.129
ltoes -0.753927
751
root -0.358195 17.713 7.90712 10.916 -2.32014 -7.69048
lowerback 12.8642 0.614749 7.24441
upperback -5.20493 2.16912 0.104704
thorax -12.7835 0.424077 -4.48594
lowerneck -19.7093 -5.42951 -4.1592
upperneck 18.7113 -8.63406 10.0289
head 9.85042 -3.18123 2.94142
rclavicle -2.00773e-014 1.59028e-015
rhumerus -29.7268 -7.88059 -12.153
rradius 64.0366
rwrist 16.1679
rhand 15.1658 -24.9463
rfingers 7.12502
rthumb 40.0077 -50.17
lclavicle -2.00773e-014 1.59028e-015
lhumerus -22.7662 16.3205 4.02528
lradius 54.2207
lwrist -15.9629
lhand -16.7662 -25.0077
lfingers 7.12502
lthumb 9.46095 4.75989
rfemur -5.73211 24.658 24.1166
rtibia 3.13326
rfoot -11.4682 -22.5934
rtoes -0.0122485
lfemur 180.255 213.926 168.831
ltibia -2.71597
lfoot 348.533 -318.224
ltoes -0.868219
752
root -0.361129 17.71 7.92082 10.7662 -2.33549 -7.59999
lowerback 12.6317 0.642796 7.23216
upperback -5.47781 2.18739 0.012434
thorax -12.9538 0.414588 -4.58263
lowerneck -19.5038 -5.41848 -4.1062
upperneck 19.4061 -8.6927 9.93793
head 10.0562 -3.19991 2.90226
rclavicle -1.19271e-014 -5.56597e-015
rhumerus -32.3378 -6.7179 -11.9677
rradius 67.4239
rwrist 15.4561
rhand 15.4283 -24.6258
rfingers 7.12502
rthumb 40.2546 -49.7745
lclavicle -1.19271e-014 -5.56597e-015
lhumerus -25.2265 14.6426 3.28176
lradius 57.312
lwrist -14.779
lhand -16.5545 -25.185
lfingers 7.12502
lthumb 9.66519 4.57325
rfemur -5.52734 24.6102 24.1203
rtibia 3.18388
rfoot -11.5859 -22.5467
rtoes -0.0736541
lfemur 180.532 213.99 168.555
ltibia -2.7083
lfoot 348.445 -318.201
ltoes -0.87447
